<?xml version="1.0" standalone="no"?>
<!DOCTYPE svg PUBLIC "-//W3C//DTD SVG 20010904//EN"
 "http://www.w3.org/TR/2001/REC-SVG-20010904/DTD/svg10.dtd">
<svg version="1.0" xmlns="http://www.w3.org/2000/svg"
 width="415.000000pt" height="602.000000pt" viewBox="0 0 415.000000 602.000000"
 preserveAspectRatio="xMidYMid meet">

<g transform="translate(0.000000,602.000000) scale(0.100000,-0.100000)"
fill="#000000" stroke="none">
<path d="M1950 5916 c-25 -7 -79 -29 -120 -48 -41 -20 -141 -52 -222 -72 -325
-81 -679 -258 -916 -458 -246 -210 -482 -524 -582 -778 -22 -55 -56 -165 -91
-295 -18 -67 -19 -133 -19 -1602 l0 -1533 153 -1 c83 0 159 -3 169 -7 9 -4 52
-55 97 -113 94 -124 273 -300 388 -382 243 -173 506 -284 879 -371 193 -46
326 -60 494 -53 381 15 780 150 1120 378 176 118 301 238 414 394 104 145 104
145 194 145 42 0 114 3 160 7 l82 6 -3 1571 -3 1571 -26 80 c-55 171 -111 303
-169 403 -168 288 -396 532 -669 714 -117 79 -405 223 -521 262 -91 30 -256
72 -323 81 -26 4 -69 19 -95 35 -107 66 -288 97 -391 66z m192 -107 c77 -17
119 -41 176 -103 88 -97 112 -208 74 -334 -35 -109 -108 -190 -208 -228 -69
-26 -194 -16 -263 21 -196 107 -249 374 -106 533 59 66 99 90 177 107 80 17
86 17 150 4z m-488 -131 c-4 -13 -10 -38 -13 -57 -6 -34 -7 -34 -141 -80 -235
-81 -456 -195 -625 -321 -141 -106 -339 -307 -417 -425 -138 -208 -223 -420
-264 -655 -20 -116 -23 -287 -27 -1456 l-3 -870 -22 -24 c-12 -13 -22 -31 -23
-39 -1 -9 -5 -5 -9 9 -7 21 -8 16 -11 -25 -9 -161 -17 390 -18 1265 -1 1058
-1 1059 44 1263 46 205 160 453 288 622 283 378 608 603 1112 771 72 24 131
44 133 44 2 0 0 -10 -4 -22z m1031 -40 c328 -109 594 -267 821 -488 327 -318
516 -695 552 -1100 5 -52 7 -590 4 -1196 l-4 -1101 -22 2 c-11 0 -26 -3 -32
-7 -16 -12 -23 309 -29 1377 -4 507 -10 922 -16 965 -37 275 -165 571 -342
794 -246 309 -553 521 -945 651 l-154 52 -19 54 c-10 30 -18 55 -19 57 0 6 64
-13 205 -60z m-1065 -217 c0 -16 3 -36 6 -45 7 -17 13 -14 -161 -81 -148 -58
-257 -115 -400 -209 l-110 -73 -55 6 -55 6 40 43 c87 96 350 247 595 341 129
49 140 50 140 12z m1056 -15 c153 -52 313 -130 440 -215 94 -62 194 -146 194
-162 0 -5 -28 -9 -63 -9 -59 0 -65 2 -116 44 -63 52 -245 157 -352 203 -41 18
-121 45 -178 60 -93 24 -102 28 -97 47 3 12 6 33 6 49 0 36 9 35 166 -17z
m-38 -483 l232 -6 0 -47 c0 -26 -3 -60 -6 -76 l-5 -29 -790 0 -789 0 0 65 c0
36 4 71 8 77 6 10 97 13 378 16 203 1 452 3 554 5 102 1 290 -1 418 -5z m792
-11 c0 -29 -30 -253 -41 -312 -16 -76 -80 -238 -125 -311 -72 -119 -256 -322
-282 -311 -10 3 -13 1 -8 -6 4 -7 2 -12 -3 -12 -6 0 -11 -6 -11 -14 0 -8 -7
-17 -16 -20 -13 -5 -14 -3 -7 6 14 17 13 49 -1 41 -6 -4 -19 -17 -28 -29 -10
-12 -31 -27 -47 -34 -28 -11 -48 -42 -43 -63 1 -5 -2 -6 -7 -3 -5 3 -7 16 -5
29 2 12 2 16 -2 10 -3 -7 -12 -13 -20 -13 -28 0 16 59 136 185 190 198 255
295 308 460 28 85 59 252 49 261 -9 9 -144 -29 -203 -58 -33 -16 -75 -42 -92
-58 l-32 -29 0 90 0 90 55 24 c73 33 231 72 330 83 44 5 83 10 88 11 4 0 7 -7
7 -17z m-2574 -3 c43 -6 132 -28 199 -49 l120 -38 2 -95 2 -94 -31 29 c-55 51
-193 108 -263 108 -21 0 -21 -3 -13 -61 30 -222 118 -404 284 -586 99 -109
124 -139 124 -152 0 -6 4 -11 10 -11 13 0 60 -71 60 -90 0 -8 -7 -24 -15 -34
-15 -19 -15 -19 -39 3 -19 18 -22 26 -13 36 7 7 15 11 20 8 4 -2 2 7 -4 21 -7
14 -16 23 -20 20 -5 -3 -6 2 -2 11 5 15 3 15 -15 4 -11 -7 -18 -17 -16 -21 3
-4 -6 -4 -20 2 -14 5 -26 6 -26 2 0 -4 -16 10 -35 31 -19 21 -35 35 -35 31 0
-25 -156 159 -226 266 -65 101 -123 239 -150 363 -29 127 -45 294 -29 301 18
8 51 6 131 -5z m2728 -182 c88 -110 187 -339 239 -551 l32 -131 0 -1145 c0
-630 -2 -1160 -5 -1177 l-4 -33 -22 21 c-14 13 -20 28 -16 41 3 14 1 19 -6 14
-7 -4 -13 -19 -14 -34 -4 -76 -16 170 -17 351 l-1 207 -1693 0 -1694 0 -8
-232 c-8 -260 -9 -275 -20 -303 -4 -11 -13 -37 -21 -58 -8 -20 -14 -51 -14
-67 0 -17 -4 -30 -9 -30 -14 0 -16 129 -19 1305 -3 1093 -2 1125 38 1292 37
151 143 394 236 540 l37 57 17 -55 c17 -54 17 -54 -7 -94 -86 -144 -173 -370
-213 -552 -19 -87 -20 -131 -20 -907 l0 -816 797 -1 c439 0 1202 0 1696 0
l898 1 -4 828 -3 827 -27 110 c-15 61 -34 133 -44 160 -25 78 -119 283 -157
344 -34 56 -35 65 -20 140 3 13 9 20 13 15 5 -5 29 -35 55 -67z m-1368 -104
c10 -79 -2 -319 -21 -433 -31 -184 -121 -400 -200 -477 -39 -39 -44 -41 -56
-26 -12 14 -11 15 11 10 14 -4 19 -4 13 -1 -7 3 -13 13 -14 22 0 11 -2 12 -6
5 -2 -7 -13 -13 -24 -13 -24 0 -24 -9 -2 -25 15 -12 14 -13 -12 -9 -17 2 -24
1 -17 -2 17 -8 15 -24 -3 -24 -8 0 -15 -6 -15 -13 0 -6 -16 -25 -35 -41 -33
-28 -34 -30 -16 -43 11 -7 57 -28 103 -46 73 -28 94 -32 173 -31 79 1 99 5
158 32 203 93 329 241 445 525 61 148 89 277 105 486 12 153 12 156 36 159
l24 4 -6 -124 c-13 -233 -51 -398 -136 -588 -112 -252 -267 -420 -448 -486
-71 -26 -89 -29 -203 -28 -103 1 -135 5 -179 22 -84 33 -157 81 -236 154 -134
125 -245 320 -309 544 -40 143 -53 218 -62 376 l-7 117 154 3 c85 2 294 4 466
6 l312 2 7 -57z m417 -74 c-1 -126 -24 -298 -49 -388 -67 -231 -209 -462 -337
-548 -70 -48 -74 -48 -19 2 162 145 295 410 337 670 9 55 17 164 18 243 l2
143 25 -3 25 -3 -2 -116z m-2035 -856 c2 -559 0 -631 -13 -637 -13 -5 -14 -2
-4 15 8 15 8 24 0 32 -8 8 -11 7 -11 -5 0 -18 -24 -18 -43 1 -15 15 -21 541
-9 925 8 266 8 269 31 287 13 11 29 18 35 16 8 -3 12 -187 14 -634z m3032 492
c17 -171 4 -1333 -16 -1352 -8 -9 -15 -10 -19 -3 -5 8 -11 8 -20 0 -9 -8 -14
-6 -19 5 -3 8 -6 277 -6 598 -1 835 -1 819 9 813 5 -3 12 13 15 37 7 40 8 41
23 22 15 -19 15 -19 9 5 -5 18 -4 21 3 10 5 -8 15 -69 21 -135z m-2550 -390
c0 -38 -6 -51 -37 -86 -32 -35 -98 -79 -119 -79 -15 0 8 97 32 132 22 31 91
78 117 78 4 0 7 -20 7 -45z m2270 8 c0 -68 -84 -207 -105 -173 -19 31 22 154
63 187 37 31 42 29 42 -14z m-222 -7 c47 -25 74 -62 79 -110 3 -25 2 -46 -1
-46 -4 0 -27 11 -51 25 -43 26 -75 79 -75 125 0 24 11 25 48 6z m-404 -165
c21 -23 65 -28 84 -9 16 16 21 7 11 -20 -13 -34 -51 -48 -89 -32 -31 13 -60
54 -60 85 0 19 25 8 54 -24z m722 22 c-2 -10 -12 -44 -20 -75 -14 -48 -25 -64
-74 -107 -31 -28 -61 -51 -65 -51 -11 0 3 100 19 130 21 42 109 119 137 120 5
0 6 -8 3 -17z m-2664 -33 c26 -17 54 -42 63 -56 15 -24 39 -133 31 -142 -8 -8
-116 68 -132 93 -19 29 -32 135 -17 135 5 0 30 -14 55 -30z m601 9 c26 -7 37
-15 37 -29 0 -27 -49 -27 -78 0 -41 38 -27 48 41 29z m-257 -22 c-21 -85 -71
-146 -151 -186 -25 -13 -48 -21 -50 -20 -2 2 0 24 5 48 11 63 56 120 119 153
67 35 85 36 77 5z m1967 2 c93 -47 128 -87 142 -162 6 -32 5 -37 -12 -37 -31
0 -126 63 -145 96 -17 29 -41 124 -31 124 2 0 23 -10 46 -21z m371 -216 c-11
-67 -45 -115 -104 -150 -30 -18 -58 -33 -62 -33 -17 0 -7 69 15 100 27 41 122
120 143 120 12 0 14 -8 8 -37z m-2686 -12 c70 -46 82 -63 82 -124 l0 -45 -34
17 c-50 26 -82 53 -99 87 -20 38 -32 104 -20 104 6 0 37 -18 71 -39z m1297 0
c72 -4 147 -4 169 1 45 10 53 6 40 -23 -9 -20 -19 -21 -169 -25 -204 -4 -225
-1 -225 37 0 26 3 28 28 23 15 -3 86 -8 157 -13z m1047 -17 c81 -41 118 -101
118 -191 0 -36 -2 -41 -20 -36 -11 3 -42 25 -69 49 -49 44 -77 96 -91 167 -7
35 -6 37 14 31 11 -4 33 -13 48 -20z m-2017 -11 c-15 -64 -56 -132 -118 -198
l-66 -70 -1 56 c0 107 42 178 134 223 47 24 59 21 51 -11z m928 -91 l57 -4 0
-113 c0 -62 7 -150 16 -195 17 -89 15 -133 -4 -90 -9 22 -11 22 -12 5 0 -13
-3 -16 -8 -8 -4 7 -13 9 -19 5 -16 -10 -10 -71 7 -82 10 -6 -31 -10 -117 -11
-73 -1 -139 -2 -145 -3 -30 -5 -26 8 15 54 76 85 147 244 147 330 0 20 -6 58
-14 84 -13 44 -13 47 2 40 9 -4 43 -9 75 -12z m172 -25 c-42 -102 9 -293 110
-405 46 -51 55 -72 33 -72 -35 0 -150 197 -169 289 -16 78 -8 184 15 210 26
28 29 21 11 -22z m-1433 -71 c67 -30 85 -50 93 -108 l7 -48 -33 12 c-53 18
-78 38 -104 83 -22 37 -33 85 -20 85 2 0 28 -11 57 -24z m2684 -8 c-10 -51
-57 -110 -111 -140 -28 -15 -54 -28 -59 -28 -10 0 0 70 15 103 11 24 122 97
148 97 10 0 12 -8 7 -32z m-1604 -18 c-2 -19 -6 -37 -9 -40 -9 -10 -623 -11
-623 -2 0 5 -3 23 -6 41 l-6 31 283 3 c411 4 365 8 361 -33z m1104 24 c-3 -9
-6 -29 -6 -45 l0 -29 -322 2 -323 3 -3 37 -3 38 293 3 c161 1 310 3 332 5 31
2 37 -1 32 -14z m197 -108 c38 -48 49 -83 42 -128 -9 -49 -18 -54 -56 -27 -43
30 -89 130 -89 192 l0 47 38 -25 c20 -13 49 -40 65 -59z m-2047 -29 c-8 -28
-26 -67 -40 -86 -24 -32 -72 -71 -88 -71 -5 0 -8 23 -8 50 0 77 38 139 120
194 24 16 25 16 28 -9 2 -14 -4 -49 -12 -78z m706 -32 c-3 -5 -17 -25 -30 -42
l-24 -33 -293 0 -294 0 17 40 c21 48 -2 45 354 45 181 0 274 -3 270 -10z
m1164 -26 c7 -18 13 -36 13 -39 1 -3 -72 -5 -161 -5 -90 0 -224 -2 -298 -4
l-135 -4 -28 39 -29 39 64 5 c35 3 175 5 312 5 l250 -1 12 -35z m-2156 -38
c46 -22 63 -38 101 -96 41 -61 44 -70 27 -73 -26 -5 -86 16 -130 44 -38 24
-98 114 -98 147 0 22 17 18 100 -22z m2624 2 c-22 -94 -123 -172 -222 -173
l-43 0 31 45 c47 69 98 113 154 134 73 29 88 27 80 -6z m-1754 -92 c0 -5 -34
-28 -76 -50 l-76 -41 -249 0 c-274 0 -273 0 -223 59 l26 31 261 3 c144 1 279
3 300 5 20 1 37 -2 37 -7z m1378 -6 c27 -5 32 -10 32 -35 0 -16 -5 -32 -10
-35 -6 -3 -112 -10 -238 -15 l-227 -8 -35 23 c-19 13 -56 34 -82 46 -27 13
-48 25 -48 28 0 7 564 3 608 -4z m500 -86 c9 -12 9 -16 -1 -16 -7 0 -14 9 -14
20 -1 11 -1 18 0 16 2 -2 8 -11 15 -20z m-1053 -84 c0 -19 -6 -20 -112 -17
-90 3 -118 0 -145 -14 -36 -19 -242 -32 -510 -33 l-138 -1 0 39 c0 29 5 41 18
44 9 3 213 4 452 3 428 -1 435 -1 435 -21z m-1065 7 c0 -4 -4 -12 -9 -17 -5
-6 -11 -23 -13 -40 l-3 -30 -352 1 c-194 0 -355 2 -357 5 -2 2 -6 16 -10 31
-6 25 -4 27 36 33 24 3 187 10 363 14 176 4 326 9 333 9 6 1 12 -2 12 -6z
m1928 -8 l73 5 -3 -41 -3 -40 -350 -2 -349 -1 -11 35 c-5 19 -13 40 -17 45 -4
7 93 7 290 2 164 -4 330 -6 370 -3z m249 -36 c-3 -7 -5 -2 -5 12 0 14 2 19 5
13 2 -7 2 -19 0 -25z m-997 -132 c0 -80 -27 -108 -32 -33 l-3 42 -200 0 c-138
0 -219 -5 -260 -14 -33 -8 -52 -16 -42 -19 33 -7 17 -22 -25 -22 -85 0 -395
-10 -465 -15 l-73 -5 0 28 c0 15 3 37 6 49 l6 23 292 3 c160 1 405 3 544 5
l252 2 0 -44z m-1212 -18 l-3 -33 -240 -3 c-238 -3 -339 7 -304 29 11 7 9 11
-11 17 -14 4 92 9 235 12 143 3 275 7 293 8 32 2 33 1 30 -30z m1909 15 c-41
-4 -47 -6 -36 -19 6 -8 10 -17 7 -19 -2 -3 -127 -8 -276 -11 l-272 -7 0 31 0
32 313 -2 c171 -1 290 -3 264 -5z m-1036 -323 c29 0 37 -4 33 -14 -6 -15 53
-213 65 -220 4 -3 18 25 31 62 13 37 29 79 37 95 10 19 11 33 4 46 -9 16 -5
19 36 25 67 9 133 7 133 -3 0 -5 -13 -19 -29 -30 -19 -14 -32 -35 -40 -68 -7
-26 -33 -99 -58 -162 -25 -64 -50 -131 -55 -148 -7 -26 -14 -33 -34 -33 -18 0
-32 12 -58 53 -36 57 -76 142 -76 163 0 53 -53 -55 -95 -193 -7 -25 -28 -29
-68 -14 -27 11 -81 125 -138 291 -17 52 -40 101 -50 109 -38 28 -21 36 76 37
93 1 95 0 78 -18 -15 -17 -15 -24 -4 -66 6 -26 24 -65 38 -86 l26 -40 18 36
c36 71 50 124 39 153 -14 37 -14 38 21 31 17 -3 49 -6 70 -6z m-1603 -19 c2
-6 -2 -13 -10 -16 -22 -9 -13 -263 10 -289 44 -49 120 -55 160 -13 19 20 22
39 28 158 5 116 4 137 -10 148 -9 8 -16 16 -16 20 0 3 41 7 90 7 89 1 108 -6
71 -26 -17 -9 -19 -24 -23 -159 -3 -147 -3 -150 -33 -192 -41 -58 -103 -88
-182 -89 -73 0 -108 11 -146 48 -57 54 -67 88 -67 232 0 127 -1 132 -25 154
-14 13 -25 26 -25 30 0 12 174 0 178 -13z m801 3 c3 -2 -6 -15 -18 -28 -22
-23 -22 -29 -16 -138 8 -130 0 -170 -43 -211 -85 -82 -231 -78 -311 7 l-24 26
29 37 c34 41 54 52 54 30 0 -25 49 -57 87 -57 25 0 43 8 64 29 29 29 29 30 29
150 0 69 -4 122 -10 126 -5 3 -14 14 -19 23 -8 16 -1 17 82 13 51 -1 94 -5 96
-7z m352 -32 c-7 -13 -7 -59 0 -145 13 -151 3 -182 -70 -228 -37 -24 -56 -29
-108 -29 -54 0 -68 4 -88 25 -31 30 -33 77 -5 105 24 24 43 25 75 4 27 -17 76
-12 94 10 8 10 8 47 -1 135 -11 121 -12 122 -42 139 l-31 17 90 5 c95 5 107 0
86 -38z m1136 -60 c127 -262 145 -297 160 -314 9 -10 14 -18 12 -18 -89 -7
-189 -3 -189 7 0 6 5 15 10 18 6 3 10 17 10 31 l0 24 -125 0 -125 0 0 -30 c0
-16 5 -30 10 -30 6 0 10 -4 10 -9 0 -9 -148 -26 -157 -17 -3 2 5 19 17 36 26
37 150 317 174 393 4 14 17 17 73 17 l68 -1 52 -107z m413 91 c0 -7 -9 -17
-20 -23 -19 -10 -20 -21 -20 -165 l0 -155 123 0 c82 0 127 4 135 12 9 9 12 1
12 -39 0 -28 3 -58 6 -67 5 -14 -4 -16 -63 -16 -87 0 -336 20 -343 27 -3 3 1
8 8 10 9 4 12 52 12 198 0 184 -1 195 -20 205 -39 21 -19 28 75 26 67 -1 95
-5 95 -13z m-2240 -518 c17 -9 30 -20 30 -25 0 -15 -38 -32 -45 -20 -10 16
-62 12 -79 -6 -9 -8 -16 -28 -16 -44 0 -37 24 -60 61 -60 32 0 38 16 13 34 -9
7 -12 18 -9 28 6 16 33 17 80 3 6 -1 9 -21 7 -45 -4 -37 -9 -44 -38 -56 -55
-23 -90 -18 -129 19 -65 59 -52 137 29 173 41 17 61 17 96 -1z m607 -66 c23
-41 46 -86 52 -101 8 -23 7 -27 -16 -31 -19 -3 -26 1 -33 19 -8 21 -16 24 -65
24 -48 0 -55 -2 -55 -20 0 -16 -7 -20 -30 -20 -16 0 -30 3 -30 6 0 7 90 175
103 192 17 21 30 9 74 -69z m621 73 c8 -6 15 -44 19 -110 l6 -102 -26 0 c-25
0 -27 3 -27 45 0 49 0 49 -64 38 -37 -6 -38 -7 -33 -39 5 -32 4 -34 -21 -34
l-27 0 -3 100 -3 100 26 0 c23 0 25 -4 25 -41 l0 -40 48 3 47 3 3 43 c3 43 7
48 30 34z m480 -12 c41 -25 37 -46 -9 -43 -67 5 -74 4 -91 -18 -24 -28 -23
-44 4 -69 25 -23 50 -25 78 -8 16 10 23 10 36 -4 16 -15 15 -18 -17 -37 -40
-25 -60 -26 -99 -6 -65 34 -81 111 -32 157 56 53 81 58 130 28z m272 4 c44
-18 48 -25 25 -44 -12 -10 -18 -10 -29 -1 -20 17 -71 10 -71 -9 0 -10 12 -16
34 -18 42 -4 77 -26 84 -54 8 -30 -42 -78 -83 -78 -34 0 -90 25 -90 41 0 16
43 27 68 18 24 -9 42 -5 42 11 0 5 -23 16 -50 25 -78 26 -88 74 -22 109 35 19
43 19 92 0z m-1660 -14 c11 -11 20 -33 20 -48 0 -16 -9 -37 -20 -47 -26 -24
-25 -33 7 -67 l27 -28 -27 0 c-26 0 -67 30 -67 50 0 6 -14 10 -31 10 -28 0
-31 -3 -27 -24 5 -25 -10 -40 -29 -28 -6 4 -12 51 -15 105 l-4 97 73 0 c60 0
77 -4 93 -20z m595 14 c25 -10 47 -61 36 -82 -17 -31 -38 -43 -88 -50 -45 -7
-48 -9 -45 -35 3 -23 0 -27 -22 -27 l-26 0 0 100 0 100 64 0 c35 0 72 -3 81
-6z m515 -94 c0 -99 0 -100 -24 -100 -24 0 -25 2 -28 93 -2 50 -2 95 0 100 2
4 14 7 28 7 24 0 24 -1 24 -100z m-1722 -17 c3 -10 -30 -13 -142 -13 -132 0
-167 6 -149 24 4 4 70 5 147 4 100 -2 141 -6 144 -15z m2735 2 c1 -6 -51 -11
-139 -13 -121 -2 -143 0 -148 13 -5 14 12 15 139 13 86 -2 146 -7 148 -13z
m-3479 -231 c1 -1 11 -5 23 -8 18 -6 24 -2 28 17 6 23 12 25 78 29 40 3 868 3
1842 1 974 -2 1794 -3 1823 -3 51 1 52 0 48 -24 -4 -21 0 -25 30 -31 19 -3 42
-1 52 4 9 6 12 11 6 11 -13 0 -6 50 7 50 5 0 9 -18 9 -40 l0 -40 -67 -1 c-38
0 -84 -1 -103 -1 -82 -1 -105 2 -90 12 11 7 -1 9 -40 9 -44 -1 -49 -3 -25 -8
28 -7 26 -8 -20 -14 -27 -3 -850 -6 -1827 -6 -977 1 -1782 -2 -1787 -6 -7 -4
-11 12 -10 47 0 53 1 54 23 2z m1631 -237 c17 -36 24 -42 48 -39 34 4 35 -11
1 -36 l-27 -19 16 -49 16 -49 -28 33 c-15 17 -31 32 -36 32 -4 0 -23 -11 -41
-25 l-33 -25 6 49 c6 50 6 50 -32 68 l-38 18 49 5 c49 5 49 5 58 48 10 48 13
47 41 -11z m755 -37 l42 -5 -32 -24 c-27 -19 -31 -28 -27 -55 2 -17 8 -40 12
-51 6 -14 -3 -10 -28 14 l-37 35 -30 -29 c-31 -30 -37 -24 -20 21 9 24 7 30
-27 61 l-38 34 42 -5 c39 -6 43 -4 48 19 18 87 15 84 35 35 16 -42 20 -45 60
-50z m-393 23 c4 -20 12 -23 54 -23 60 0 62 -11 12 -62 l-36 -37 16 -42 c9
-24 15 -44 13 -47 -2 -2 -23 9 -46 24 l-42 28 -41 -22 c-22 -12 -42 -21 -44
-19 -2 2 4 20 12 40 19 45 19 67 1 67 -16 0 -66 38 -66 51 0 5 22 9 49 9 48 0
50 1 62 38 6 20 14 41 17 46 6 11 31 -21 39 -51z m-1032 -63 c284 -191 788
-340 1069 -315 376 34 667 129 931 302 121 79 114 76 110 56 -2 -10 -4 -22 -4
-26 -1 -5 -5 -5 -11 -2 -6 3 -7 -1 -4 -9 6 -15 18 -20 39 -16 23 4 -84 -76
-175 -132 -199 -121 -372 -182 -695 -244 -41 -7 -143 -13 -250 -13 -167 -1
-192 2 -348 33 -244 50 -379 100 -595 220 -70 40 -134 83 -172 118 -14 13 -20
19 -12 13 11 -7 13 -4 11 10 -2 11 0 26 5 34 6 9 5 12 -2 8 -6 -5 -8 0 -5 13
5 19 7 20 27 6 11 -9 48 -34 81 -56z m2364 -14 c-39 -41 -95 -94 -125 -117
-29 -22 -51 -46 -47 -52 4 -6 1 -7 -6 -3 -7 5 -20 2 -29 -6 -23 -19 -170 -106
-256 -152 -141 -76 -384 -152 -578 -182 -142 -22 -513 -25 -633 -5 -181 30
-565 161 -565 193 0 5 19 -1 43 -13 87 -45 217 -90 372 -131 l160 -41 240 -5
c272 -5 386 7 585 59 325 87 642 267 855 488 21 23 42 41 46 41 5 0 -24 -33
-62 -74z m-2739 39 c7 -9 8 -15 2 -15 -5 0 -12 7 -16 15 -3 8 -4 15 -2 15 2 0
9 -7 16 -15z m56 -57 c29 -31 29 -31 2 -12 -15 10 -29 25 -32 32 -8 18 -2 15
30 -20z m259 -196 c88 -60 102 -71 65 -52 -42 22 -159 101 -166 112 -9 13 -3
10 101 -60z"/>
<path d="M1965 5725 c-57 -21 -127 -98 -154 -170 -50 -131 4 -267 132 -332
175 -88 374 24 402 227 13 94 -55 211 -152 260 -59 30 -168 38 -228 15z m115
-104 c17 -43 43 -62 96 -72 26 -5 50 -11 53 -14 2 -3 -12 -22 -32 -43 -41 -42
-47 -78 -22 -122 29 -51 8 -54 -61 -7 l-49 32 -25 -23 c-14 -13 -38 -30 -53
-38 l-28 -15 7 50 c9 67 1 93 -36 114 -56 33 -31 84 70 141 57 33 65 32 80 -3z"/>
<path d="M122 1820 c0 -14 2 -19 5 -12 2 6 2 18 0 25 -3 6 -5 1 -5 -13z"/>
<path d="M2718 4873 c-59 -3 -68 -6 -69 -23 -1 -11 -2 -28 -3 -37 -1 -16 10
-18 82 -21 l82 -3 0 46 c0 30 -4 44 -12 43 -7 -1 -43 -3 -80 -5z"/>
<path d="M3060 4145 c-13 -14 -22 -27 -19 -29 2 -2 14 10 27 25 29 36 24 38
-8 4z"/>
<path d="M2909 3983 l-24 -28 28 24 c25 23 32 31 24 31 -2 0 -14 -12 -28 -27z"/>
<path d="M1174 4047 c32 -37 61 -67 63 -67 7 0 -96 118 -111 127 -6 4 15 -23
48 -60z"/>
<path d="M1196 3955 c-8 -7 -13 -15 -9 -18 3 -4 12 1 19 11 13 16 13 16 14 0
0 -10 5 -18 10 -18 6 0 10 8 10 18 0 15 2 15 11 2 8 -12 10 -12 7 -1 -5 18
-40 21 -62 6z"/>
<path d="M2850 2009 c-7 -19 -22 -46 -32 -61 -12 -17 -15 -29 -8 -33 13 -8
110 4 110 13 -1 4 -13 31 -29 61 l-28 53 -13 -33z"/>
<path d="M1683 1550 c-11 -28 -10 -30 13 -30 26 0 27 3 18 38 -8 30 -17 28
-31 -8z"/>
<path d="M1361 1591 c-8 -5 -11 -16 -8 -25 8 -20 87 -23 87 -3 0 31 -47 48
-79 28z"/>
<path d="M1970 1571 c0 -32 52 -37 72 -7 11 17 -2 26 -38 26 -27 0 -34 -4 -34
-19z"/>
</g>
</svg>
